<svg width="30" height="30" viewBox="0 0 30 30" fill="none" xmlns="http://www.w3.org/2000/svg">
<g filter="url(#filter0_i_586_366)">
<path d="M0 4.80769C0 2.15248 2.15248 0 4.80769 0H25.1923C27.8475 0 30 2.15248 30 4.80769V25.1923C30 27.8475 27.8475 30 25.1923 30H4.80769C2.15248 30 0 27.8475 0 25.1923V4.80769Z" fill="#414066"/>
<path fill-rule="evenodd" clip-rule="evenodd" d="M13.6337 22.7807V16.1476H8.58943L8.59407 22.794L6.15388 20.4666V14.9481C6.15388 14.9388 6.15386 14.9294 6.15388 14.9201V14.8077C6.16848 13.7308 6.35252 12.7405 6.70417 11.8368C7.08572 10.8795 7.61403 10.0527 8.28909 9.35649C8.97883 8.64575 9.77863 8.09456 10.6885 7.70293C11.593 7.31979 12.5747 7.12406 13.6337 7.11575L16.2598 7.11538C17.3869 7.11538 18.4014 7.30188 19.3031 7.67486C20.2198 8.04784 21.0013 8.58494 21.6476 9.28615C22.2938 9.98736 22.7897 10.8154 23.1354 11.7702C23.4811 12.7251 23.6539 13.7843 23.6539 14.948C23.6539 16.1118 23.4811 17.1785 23.1354 18.1482C22.7897 19.1031 22.2938 19.9311 21.6476 20.6323C21.0164 21.3186 20.2424 21.8482 19.3256 22.2212C18.4089 22.5942 17.3869 22.7807 16.2598 22.7807H13.6337ZM13.6337 9.40041V13.8896H8.65195C8.71376 13.481 8.81294 13.0941 8.94948 12.7289C9.19895 12.0472 9.55116 11.4597 10.0061 10.9665C10.4757 10.4734 11.0187 10.089 11.635 9.8134C12.2462 9.54648 12.9124 9.40882 13.6337 9.40041ZM16.0684 20.4533H16.1471C16.9436 20.4533 17.6499 20.3265 18.2661 20.0728C18.8973 19.8192 19.4233 19.4611 19.8441 18.9986C20.2799 18.5212 20.6106 17.9394 20.836 17.2531C21.0614 16.5668 21.1742 15.7984 21.1742 14.948C21.1742 14.0976 21.0614 13.3368 20.836 12.6654C20.6106 11.9791 20.2799 11.3972 19.8441 10.9198C19.4083 10.4424 18.8823 10.0769 18.2661 9.82325C17.6499 9.56962 16.9436 9.4428 16.1471 9.4428H16.0684V20.4533Z" fill="white"/>
</g>
<defs>
<filter id="filter0_i_586_366" x="0" y="0" width="30" height="30.7692" filterUnits="userSpaceOnUse" color-interpolation-filters="sRGB">
<feFlood flood-opacity="0" result="BackgroundImageFix"/>
<feBlend mode="normal" in="SourceGraphic" in2="BackgroundImageFix" result="shape"/>
<feColorMatrix in="SourceAlpha" type="matrix" values="0 0 0 0 0 0 0 0 0 0 0 0 0 0 0 0 0 0 127 0" result="hardAlpha"/>
<feOffset dy="0.769231"/>
<feGaussianBlur stdDeviation="0.384615"/>
<feComposite in2="hardAlpha" operator="arithmetic" k2="-1" k3="1"/>
<feColorMatrix type="matrix" values="0 0 0 0 0 0 0 0 0 0 0 0 0 0 0 0 0 0 0.25 0"/>
<feBlend mode="normal" in2="shape" result="effect1_innerShadow_586_366"/>
</filter>
</defs>
</svg>
